<svg id="Layer_1" data-name="Layer 1" xmlns="http://www.w3.org/2000/svg" viewBox="0 0 624 608"><defs><style>.cls-1{fill:#f6ae2d;stroke:#000882;stroke-miterlimit:10;}.cls-2{fill:#000882;}.cls-3{fill:#000842;}.cls-4{fill:#ff8700;}</style></defs><path class="cls-1" d="M520.52,195.41H225.2a15,15,0,0,1-15-15V84a15,15,0,0,1,15-15H520.52a15,15,0,0,1,10.6,4.39l48.2,48.2a15,15,0,0,1,0,21.21L531.12,191A15,15,0,0,1,520.52,195.41Z"/><path class="cls-1" d="M221.85,351.2H383.26a15.1,15.1,0,0,0,10.65-4.39l48.43-48.2a15,15,0,0,0,0-21.22l-48.43-48.2a15.1,15.1,0,0,0-10.65-4.39H221.85a15,15,0,0,0-15.07,15v96.4a15,15,0,0,0,15.07,15Z"/><path class="cls-2" d="M207.49,549H143.22a15,15,0,0,1-15-15V52.83a15,15,0,0,1,15-15h64.27a15,15,0,0,1,15,15V534A15,15,0,0,1,207.49,549Z"/><path class="cls-3" d="M222.49,534V52.83a15,15,0,0,0-15-15H175.35V549h32.14A15,15,0,0,0,222.49,534Z"/><path class="cls-4" d="M271.75,534H79a15,15,0,0,0-15,15c0,8.28,6.72,15,15,15.71h96.4l96.4-.71a15,15,0,0,0,0-30Z"/><path d="M252.88,304V275.76H243V269.1h28.2v6.66h-9.89V304Z"/><path d="M302.48,269.1l-11.56,20.32V304h-8.41V289.87L270.75,269.1h9.58l6.57,12.47,6.32-12.47Z"/><path d="M331.29,280.12a14.59,14.59,0,0,1-.74,4.64,10,10,0,0,1-2.14,3.68,15.19,15.19,0,0,1-1.88,1.69,11.13,11.13,0,0,1-2.26,1.31,13.54,13.54,0,0,1-2.68.84,16.09,16.09,0,0,1-3.25.31h-4.41V304h-8.41V269.1h13a20.26,20.26,0,0,1,5,.55,11.83,11.83,0,0,1,3.81,1.75,8.56,8.56,0,0,1,2.92,3.5A12.12,12.12,0,0,1,331.29,280.12Zm-8.64.21a4.63,4.63,0,0,0-.67-2.54,3.59,3.59,0,0,0-1.62-1.47,6.67,6.67,0,0,0-2.28-.62c-.73-.05-1.71-.08-3-.08h-1.19v10.45h.58l2.25,0a11.93,11.93,0,0,0,1.85-.17,5.79,5.79,0,0,0,1.42-.45,3.54,3.54,0,0,0,1.16-.77,4.57,4.57,0,0,0,1.16-1.8A8.61,8.61,0,0,0,322.65,280.33Z"/><path d="M366.28,286.56q0,8.46-4.34,13.32T350,304.73q-7.57,0-11.89-4.91c-2.88-3.28-4.32-7.69-4.32-13.26s1.44-10,4.32-13.3,6.84-4.88,11.89-4.88,9,1.62,11.9,4.86S366.28,280.92,366.28,286.56Zm-8.68,0a19.85,19.85,0,0,0-.62-5.31,11.13,11.13,0,0,0-1.65-3.6,6.57,6.57,0,0,0-2.44-2.05,6.8,6.8,0,0,0-2.82-.62,6.54,6.54,0,0,0-2.81.58,6.72,6.72,0,0,0-2.43,2,10.83,10.83,0,0,0-1.68,3.61,23.21,23.21,0,0,0,0,10.7,11.13,11.13,0,0,0,1.66,3.55,6.41,6.41,0,0,0,2.45,2.07,6.89,6.89,0,0,0,2.84.62,6.49,6.49,0,0,0,2.87-.67,6.23,6.23,0,0,0,2.41-2.07,11.74,11.74,0,0,0,1.66-3.55A19.65,19.65,0,0,0,357.6,286.54Z"/><path d="M395,293.43a11.57,11.57,0,0,1-.91,4.66,9.67,9.67,0,0,1-2.66,3.59,12.66,12.66,0,0,1-4.18,2.26,18.63,18.63,0,0,1-5.83.79,28.9,28.9,0,0,1-6.71-.68,23.42,23.42,0,0,1-4.56-1.53V295h.81a19.61,19.61,0,0,0,4.33,2.11,13.42,13.42,0,0,0,4.53.89,17,17,0,0,0,2.64-.22,5.14,5.14,0,0,0,2.4-1,4.34,4.34,0,0,0,1.22-1.44,5.16,5.16,0,0,0,.47-2.43,3.77,3.77,0,0,0-.66-2.38,3.66,3.66,0,0,0-1.73-1.2,8.05,8.05,0,0,0-2.58-.45c-1,0-1.89-.05-2.66-.05h-1.44v-6.14h1.33a24.33,24.33,0,0,0,2.81-.14,6.88,6.88,0,0,0,2.18-.56,3.48,3.48,0,0,0,1.41-1.24,4.06,4.06,0,0,0,.5-2.16,2.87,2.87,0,0,0-.47-1.72,3.24,3.24,0,0,0-1.17-1,5.59,5.59,0,0,0-1.89-.57,15.27,15.27,0,0,0-1.84-.14,10.47,10.47,0,0,0-2.52.31,19.53,19.53,0,0,0-2.5.77,15,15,0,0,0-2,1c-.68.4-1.19.7-1.52.91h-.7v-7.48a27.85,27.85,0,0,1,4.67-1.49,25,25,0,0,1,6-.71,22.44,22.44,0,0,1,5.18.53,12.1,12.1,0,0,1,3.75,1.57,7.17,7.17,0,0,1,2.56,2.81,8.39,8.39,0,0,1,.85,3.83,8.54,8.54,0,0,1-1.65,5.21,7.46,7.46,0,0,1-4.35,2.9v.33a10.73,10.73,0,0,1,2.33.63,7,7,0,0,1,2.21,1.45,7.23,7.23,0,0,1,1.68,2.36A8.17,8.17,0,0,1,395,293.43Z"/><path d="M258,146.47a9.11,9.11,0,0,1-2.64,6.95,9.61,9.61,0,0,1-6.85,2.49,36.16,36.16,0,0,1-4.08-.2,19.64,19.64,0,0,1-2.67-.41v-6h.63a12.13,12.13,0,0,0,1.77.41,10.8,10.8,0,0,0,1.56.15,3.44,3.44,0,0,0,3.23-1.45,10,10,0,0,0,.85-4.78V125.4h-4.73v-5.72H258Zm0-30.54h-8.74v-6.4H258Z"/><path d="M303.51,119.68,295.82,146H287.1l-4.62-17-4.64,17h-8.72l-7.61-26.32h8.62l4,17.41,5-17.41h7.25l4.71,17.41,4-17.41Z"/><path d="M320.47,146.7q-7.44,0-11.42-3.56t-4-10.15q0-6.44,3.7-10.29t10.36-3.84q6,0,9.09,3.26t3,9.33v3h-18a7.47,7.47,0,0,0,.78,3.06,5.2,5.2,0,0,0,1.73,1.95,6.84,6.84,0,0,0,2.46,1.05,14.07,14.07,0,0,0,3.07.31,12.6,12.6,0,0,0,2.81-.31,13,13,0,0,0,2.54-.84,14.74,14.74,0,0,0,1.86-1,16.15,16.15,0,0,0,1.39-.91h.87v6.77l-1.84.74a15.71,15.71,0,0,1-2.28.69,22.46,22.46,0,0,1-2.76.55A24.25,24.25,0,0,1,320.47,146.7Zm2.72-17.25a6.33,6.33,0,0,0-1.2-4,4.31,4.31,0,0,0-3.48-1.36,4.9,4.9,0,0,0-3.74,1.43,6,6,0,0,0-1.49,3.89Z"/><path d="M343.94,115.93h-8.68v-6.4h8.68ZM343.7,146h-8.2V119.68h8.2Z"/><path d="M358.19,146H350V109.53h8.21Z"/><path d="M379,143.21l-1.51,1.27a9,9,0,0,1-1.79,1.12,12.14,12.14,0,0,1-2.14.82,11.7,11.7,0,0,1-2.92.28,7.81,7.81,0,0,1-5.8-2.34,8.07,8.07,0,0,1-2.31-5.91,8.56,8.56,0,0,1,1.17-4.73,8.08,8.08,0,0,1,3.37-2.86,17.65,17.65,0,0,1,5.33-1.5q3.09-.42,6.65-.66v-.14a3.09,3.09,0,0,0-1.6-3,10.92,10.92,0,0,0-4.82-.83,12.91,12.91,0,0,0-3.4.53,27.21,27.21,0,0,0-3.8,1.34h-.7v-6.35c.81-.23,2.13-.51,3.94-.83a31.44,31.44,0,0,1,5.48-.48q6.79,0,9.91,2.26t3.1,6.9V146H379Zm0-4.08v-5.48l-3.37.36a11.22,11.22,0,0,0-2.53.6,3.55,3.55,0,0,0-1.68,1.14,3.16,3.16,0,0,0-.6,2,2.91,2.91,0,0,0,1,2.55,5.19,5.19,0,0,0,2.94.69,5.63,5.63,0,0,0,2.21-.49A6.62,6.62,0,0,0,379,139.13Z"/><path d="M417.86,146h-8.25V133c0-1.07-.05-2.13-.13-3.18a7.39,7.39,0,0,0-.48-2.33,2.58,2.58,0,0,0-1.22-1.28,4.88,4.88,0,0,0-2.13-.39,5.88,5.88,0,0,0-2,.38,10.09,10.09,0,0,0-2.21,1.19V146h-8.2V119.68h8.2v2.91a20.5,20.5,0,0,1,3.93-2.68,9.26,9.26,0,0,1,4.23-1,7.57,7.57,0,0,1,6.16,2.55q2.14,2.53,2.14,7.37Z"/><path d="M447.86,146h-8.21v-2.74c-.53.44-1.13.9-1.81,1.4a11.8,11.8,0,0,1-1.8,1.13,9,9,0,0,1-4.24.94,8.28,8.28,0,0,1-7.12-3.73q-2.62-3.72-2.63-10a18.15,18.15,0,0,1,.89-6,14.37,14.37,0,0,1,2.46-4.4,10.46,10.46,0,0,1,3.47-2.71,9.78,9.78,0,0,1,4.32-1,11,11,0,0,1,3.38.44,20.58,20.58,0,0,1,3.08,1.34v-11.2h8.21Zm-8.21-7.27V125.82a6.36,6.36,0,0,0-1.59-.5,8.23,8.23,0,0,0-1.69-.2,5.1,5.1,0,0,0-4.44,2.06,9.73,9.73,0,0,0-1.49,5.77q0,3.88,1.19,5.62a4.29,4.29,0,0,0,3.83,1.73,6.11,6.11,0,0,0,2.18-.42A7.44,7.44,0,0,0,439.65,138.73Z"/><path d="M462.65,146h-8.3v-9.21h8.3Z"/><path d="M493.79,146h-8.25V133q0-1.6-.12-3.18a7.39,7.39,0,0,0-.48-2.33,2.63,2.63,0,0,0-1.22-1.28,4.93,4.93,0,0,0-2.14-.39,6,6,0,0,0-2,.38,10,10,0,0,0-2.2,1.19V146h-8.2V119.68h8.2v2.91a20.2,20.2,0,0,1,3.93-2.68,9.26,9.26,0,0,1,4.23-1,7.57,7.57,0,0,1,6.16,2.55q2.13,2.53,2.13,7.37Z"/><path d="M513.34,146.7q-7.46,0-11.42-3.56t-4-10.15q0-6.44,3.71-10.29T512,118.86q6,0,9.09,3.26t3,9.33v3h-18a7.64,7.64,0,0,0,.77,3.06,5.31,5.31,0,0,0,1.74,1.95,6.84,6.84,0,0,0,2.46,1.05,14.07,14.07,0,0,0,3.07.31,12.6,12.6,0,0,0,2.81-.31,13,13,0,0,0,2.53-.84,14.88,14.88,0,0,0,1.87-1,16.15,16.15,0,0,0,1.39-.91h.87v6.77l-1.84.74a15.9,15.9,0,0,1-2.29.69,22.3,22.3,0,0,1-2.75.55A24.35,24.35,0,0,1,513.34,146.7Zm2.72-17.25a6.33,6.33,0,0,0-1.21-4,4.28,4.28,0,0,0-3.48-1.36,4.91,4.91,0,0,0-3.74,1.43,6,6,0,0,0-1.48,3.89Z"/><path d="M538.44,146.52q-5,0-7.3-2.07t-2.28-6.75V125.4h-3.14v-5.72h3.14v-7.52h8.2v7.52H545v5.72h-7.9v9.33c0,.92,0,1.72,0,2.41a4.88,4.88,0,0,0,.38,1.85,2.56,2.56,0,0,0,1.16,1.3,4.9,4.9,0,0,0,2.42.48,7,7,0,0,0,1.73-.28,8.12,8.12,0,0,0,1.49-.51h.7v5.79a25.53,25.53,0,0,1-2.84.55A29,29,0,0,1,538.44,146.52Z"/></svg>