<?xml version="1.0" encoding="UTF-8"?>
<svg xmlns="http://www.w3.org/2000/svg" width="300" height="200" viewBox="0 0 300 200">
  <defs>
    <style>
      .cls-1 {
        fill: #eaeaea;
      }

      .cls-2 {
        fill: #5b5b5b;
      }

      .cls-3 {
        fill: #3a3a3a;
      }

      .cls-4 {
        fill: #838591;
      }

      .cls-5 {
        fill: #fff;
        stroke: #1d1d1b;
        stroke-miterlimit: 10;
        stroke-width: 4px;
      }
    </style>
  </defs>
  <g id="Ebene_3" data-name="Ebene 3">
    <rect class="cls-5" width="300" height="200"></rect>
    <rect class="cls-2" x="2" y="184" width="296" height="14"></rect>
    <rect class="cls-3" x="2" y="20" width="296" height="2"></rect>
  </g>
  <g id="Ebene_1" data-name="Ebene 1">
    <rect class="cls-4" x="2" y="22" width="296" height="70"></rect>
    <rect class="cls-1" x="55" y="92" width="190" height="92"></rect>
    <rect x="67.06" y="105.34" width="62" height="3"></rect>
    <rect x="67.06" y="121.68" width="168.84" height="1"></rect>
    <rect x="67.06" y="132.51" width="168.84" height="1"></rect>
    <rect x="67.06" y="143.34" width="168.84" height="1"></rect>
    <rect x="67.06" y="154.17" width="140" height="1"></rect>
  </g>
  <g id="Ebene_2" data-name="Ebene 2">
    <rect class="cls-1" x="55" y="92" width="190" height="92"></rect>
    <rect x="67.06" y="105.34" width="62" height="3"></rect>
    <rect x="67.06" y="121.68" width="168.84" height="1"></rect>
    <rect x="67.06" y="132.51" width="168.84" height="1"></rect>
    <rect x="67.06" y="143.34" width="168.84" height="1"></rect>
    <rect x="67.06" y="154.17" width="140" height="1"></rect>
  </g>
</svg>
