<svg id="rgb_00842" data-name="rgb #00842" xmlns="http://www.w3.org/2000/svg" viewBox="0 0 214 72"><defs><style>.cls-1{fill:#000842;}</style></defs><title>Zeichenfläche 1</title><path class="cls-1" d="M10,25.66h-6V45.59c0,1.45,0,3-2.14,3H1v4.57H2.49C9.09,53.21,10,50,10,45.37V25.66Zm0-6.71h-6v4.57h6V18.95Z"/><polygon class="cls-1" points="12.43 25.75 18.6 45.89 24.19 45.89 27.56 32.86 27.63 32.86 31.01 45.89 36.6 45.89 42.77 25.75 36.56 25.75 33.55 38.27 33.48 38.27 30.14 25.75 25.06 25.75 21.75 38.27 21.68 38.27 18.67 25.75 12.43 25.75 12.43 25.75"/><path class="cls-1" d="M57.11,39.61a4.29,4.29,0,0,1-3.67,1.89,4.52,4.52,0,0,1-4.72-3.81h15.1a8.27,8.27,0,0,0,.14-1.6c0-6.13-4.5-11-10.63-11a10.74,10.74,0,0,0,.11,21.48,9.79,9.79,0,0,0,5.73-1.81,11.81,11.81,0,0,0,4.1-5.15Zm-8.31-6a4.76,4.76,0,0,1,9.14,0Z"/><path class="cls-1" d="M72.68,25.82h-6V46h6V25.82Zm0-6.71h-6v4.57h6V19.11Z"/><polygon class="cls-1" points="75.84 45.92 81.86 45.92 81.86 19.07 75.84 19.07 75.84 45.92 75.84 45.92"/><path class="cls-1" d="M106.58,25.89h-6V28h-.07c-.73-1.23-2.58-2.83-5.88-2.83-5.37,0-10.12,4.14-10.12,10.74,0,5.77,3.74,10.78,10.12,10.78,2.36,0,4.86-.91,5.88-2.87h.07V46h6V25.89ZM90.5,36a5,5,0,1,1,5,5.08,5,5,0,0,1-5-5.08Z"/><path class="cls-1" d="M109.94,46.1h6v-11c0-1.23,0-4.21,3.45-4.21,3.16,0,3.16,2.76,3.16,4.17v11h6V33.51c0-4-1.23-5.55-2.32-6.5a8.67,8.67,0,0,0-5.15-1.74c-3.59,0-4.86,1.85-5.48,2.83h-.07V26h-5.63V46.1Z"/><path class="cls-1" d="M152.84,19.05h-6v8.42a7.72,7.72,0,0,0-5.92-2.4c-5.12,0-10,3.88-10,10.71,0,6.06,4,10.78,10.09,10.78,4.06,0,5.52-2,6-2.83h.07v2.18h5.73V19.05Zm-15.9,16.69a5.1,5.1,0,0,1,10.2,0A5,5,0,0,1,142,40.94a4.94,4.94,0,0,1-5-5.19Z"/><polygon class="cls-1" points="156.14 46 160.96 46 160.96 41.17 156.14 41.17 156.14 46 156.14 46"/><path class="cls-1" d="M164.48,46.07H167V35.14a7.24,7.24,0,0,1,1.85-5.44,6.32,6.32,0,0,1,8.64,0,7.4,7.4,0,0,1,1.89,5.44V46.07h2.54V35.14c0-3.27-1-5.55-2.47-7a8.25,8.25,0,0,0-6.28-2.43,7.1,7.1,0,0,0-6.1,3H167V26.22h-2.54V46.07Z"/><path class="cls-1" d="M204,36.85a10.44,10.44,0,0,0-1.52-6.28,10.31,10.31,0,0,0-8.85-5.08,10.49,10.49,0,0,0-10.31,10.45,10.33,10.33,0,0,0,20.11,3.41h-2.69A7.53,7.53,0,0,1,193.62,44a7.89,7.89,0,0,1-7.69-7.19Zm-18.07-2.29a7.82,7.82,0,0,1,15.5,0Z"/><polygon class="cls-1" points="206.71 45.97 209.25 45.97 209.25 28.4 214 28.4 214 26.11 209.25 26.11 209.25 19.11 206.71 19.11 206.71 26.11 202.53 26.11 202.53 28.4 206.71 28.4 206.71 45.97 206.71 45.97"/></svg>