<?xml version="1.0" encoding="UTF-8"?>
<svg id="Ebene_1" data-name="Ebene 1" xmlns="http://www.w3.org/2000/svg" viewBox="0 0 512 512">
  <defs>
    <style>
      .cls-1 {
        fill: #fff;
      }

      .cls-2 {
        fill: #2b90d9;
      }
    </style>
  </defs>
  <path class="cls-2" d="m484.63,306.94c-7.02,36.12-62.88,75.64-127.03,83.3-33.45,3.99-66.39,7.66-101.51,6.05-57.44-2.63-102.76-13.71-102.76-13.71,0,5.59.34,10.92,1.03,15.89,7.47,56.68,56.21,60.08,102.38,61.66,46.6,1.59,88.09-11.49,88.09-11.49l1.91,42.13s-32.59,17.5-90.66,20.72c-32.02,1.76-71.77-.81-118.08-13.06-100.43-26.58-117.7-133.63-120.34-242.25-.81-32.25-.31-62.66-.31-88.09C17.36,57.03,90.13,24.47,90.13,24.47,126.83,7.62,189.79.54,255.24,0h1.61c65.46.54,128.46,7.62,165.15,24.47,0,0,72.77,32.56,72.77,143.62,0,0,.91,81.95-10.15,138.84"/>
  <path class="cls-1" d="m408.94,176.71v134.49h-53.28v-130.53c0-27.52-11.58-41.48-34.74-41.48-25.6,0-38.44,16.57-38.44,49.33v71.45h-52.97v-71.45c0-32.76-12.84-49.33-38.44-49.33-23.16,0-34.74,13.97-34.74,41.48v130.53h-53.28v-134.49c0-27.49,7-49.33,21.06-65.49,14.5-16.16,33.48-24.44,57.05-24.44,27.27,0,47.91,10.48,61.56,31.44l13.27,22.25,13.27-22.25c13.65-20.96,34.3-31.44,61.56-31.44,23.56,0,42.55,8.28,57.05,24.44,14.05,16.16,21.05,38,21.05,65.49"/>
</svg>