<?xml version="1.0" encoding="utf-8"?>
<svg version="1.1" id="Ebene_1" xmlns="http://www.w3.org/2000/svg" xmlns:xlink="http://www.w3.org/1999/xlink" x="0px" y="0px"
	 viewBox="0 0 512 514.8" style="enable-background:new 0 0 512 514.8;" xml:space="preserve">
<style type="text/css">
	.st0{fill:#0078D7;}
</style>
<g id="Page-1">
	<g id="Logo" transform="translate(-1.000000, 0.000000)">
		<path id="Shape" class="st0" d="M258,411.8c-85.2,0-124.1-43.4-124.1-75.2c0-7.6,3.1-14.9,8.6-20.1c5.5-5.2,12.9-7.9,20.5-7.5
			c36.5,0,26.9,54.7,95,54.7c34.8,0,55.2-20.9,55.2-40.6c0-11.8-6.8-25.3-29.7-30.7l-76-19.2c-61-15.5-71.7-49.5-71.7-81
			c0-65.3,59.8-89,116.7-89c52.4,0,114.7,29,114.7,68.1c0,16.9-14.1,25.9-30.5,25.9c-31.2,0-25.9-43.7-88.6-43.7
			c-31.2,0-47.5,14.6-47.5,35s24.2,27.4,45.5,32l56.1,12.7c61.5,13.8,77.8,49.9,77.8,84.4C380.1,370.8,339,411.8,258,411.8
			 M493.3,299.4c2.4-13.9,3.6-28.1,3.6-42.2c0.3-71.1-30.9-138.6-85.3-184.4S285.4,7.6,215.4,19.9C193.9,7.5,169.5,1,144.7,1
			c-51,0.3-97.9,27.6-123.4,71.8s-25.6,98.5-0.4,142.8c-14.1,77.3,10.6,156.6,66,212.3s134.6,80.8,212,67.1
			c21.5,12.4,45.9,18.9,70.7,18.8c50.9-0.3,97.9-27.6,123.4-71.7C518.2,398,518.4,343.7,493.3,299.4"/>
	</g>
</g>
</svg>
