<?xml version="1.0" encoding="UTF-8"?>
<svg id="Ebene_1" data-name="Ebene 1" xmlns="http://www.w3.org/2000/svg" viewBox="0 0 512 512">
  <defs>
    <style>
      .cls-1 {
        fill: #fff;
      }

      .cls-2 {
        fill: red;
      }
    </style>
  </defs>
  <path class="cls-2" d="m497.43,132.41c-5.29-21.15-22.91-38.77-44.06-44.06-38.77-10.57-197.37-10.57-197.37-10.57,0,0-156.84,0-197.37,10.57-21.15,5.29-38.77,22.91-44.06,44.06-10.57,38.77-10.57,121.59-10.57,121.59,0,0,0,81.06,10.57,121.59,5.29,21.15,22.91,38.77,44.06,44.06,38.77,10.57,197.37,10.57,197.37,10.57,0,0,156.84,0,197.37-10.57,21.15-5.29,38.77-22.91,44.06-44.06,10.57-40.53,10.57-121.59,10.57-121.59,0,0,0-82.83-10.57-121.59Z"/>
  <path class="cls-1" d="m204.9,329.78l130.41-75.78-130.41-75.78v151.55Z"/>
</svg>