<?xml version="1.0" encoding="UTF-8"?>
<svg xmlns="http://www.w3.org/2000/svg" xmlns:xlink="http://www.w3.org/1999/xlink" version="1.1" id="Ebene_1" x="0px" y="0px" viewBox="0 0 512 512" style="enable-background:new 0 0 512 512;" xml:space="preserve">
<style type="text/css">
	.st0{fill:#2867B2;}
	.st1{fill:#FFFFFF;}
</style>
<path class="st0" d="M0,36.8C0.2,16.3,16.9-0.2,37.4,0c0.1,0,0.2,0,0.3,0h436.5c20.5-0.4,37.4,16,37.8,36.5c0,0.1,0,0.2,0,0.3v438.4  c-0.2,20.5-16.9,37-37.4,36.8c-0.1,0-0.2,0-0.3,0H37.8C17.3,512.3,0.4,496,0,475.5c0-0.1,0-0.2,0-0.3V36.8z"></path>
<path class="st1" d="M154.2,428.5v-231H77.4v231L154.2,428.5z M115.8,165.8c22,2,41.4-14.3,43.4-36.3S145,88.1,123,86.1  c-2.4-0.2-4.8-0.2-7.1,0c-22-2-41.4,14.3-43.4,36.3c-2,22,14.3,41.4,36.3,43.4C111.1,166,113.5,166,115.8,165.8z M196.8,428.5h76.8  v-128c-0.2-6.4,0.6-12.8,2.6-18.9c5.6-17,21.4-28.6,39.4-28.8c27.8,0,39,21.1,39,52.2v123.5h76.8V296c0-72-38.1-104-88.6-104  c-28.7-1.1-55.7,13.9-69.8,39l0,0v-32h-76.2c0,21.8,0,231,0,231L196.8,428.5z"></path>
</svg>
