<?xml version="1.0" encoding="UTF-8"?>
<svg xmlns="http://www.w3.org/2000/svg" xmlns:xlink="http://www.w3.org/1999/xlink" version="1.1" id="Ebene_1" x="0px" y="0px" viewBox="0 0 480 480" style="enable-background:new 0 0 480 480;" xml:space="preserve">
<path d="M145.2,411.4c0,36.9-29.9,66.7-66.7,66.7s-66.7-29.9-66.7-66.7s29.9-66.7,66.7-66.7S145.2,374.6,145.2,411.4L145.2,411.4z   M328.2,460.6c-8.8-161.1-137.8-290.3-299.1-299.1c-9.5-0.5-17.5,7.1-17.5,16.7v50.1c0,8.8,6.8,16.2,15.5,16.7  c116.5,7.6,210,100.8,217.6,217.6c0.5,8.8,7.9,15.5,16.7,15.5h50.1C321.1,478.1,328.7,470.1,328.2,460.6L328.2,460.6z M478.6,461  C469.8,217.3,273.8,20,28.9,11.3c-9.4-0.3-17.2,7.3-17.2,16.7v50.1c0,9,7.1,16.3,16.2,16.7c199.3,8.1,359.1,168.1,367.4,367.4  c0.4,9,7.7,16.2,16.7,16.2h50C471.3,478.1,478.9,470.3,478.6,461z"></path>
</svg>
