<?xml version="1.0" encoding="UTF-8"?>
<svg xmlns="http://www.w3.org/2000/svg" xmlns:xlink="http://www.w3.org/1999/xlink" version="1.1" id="Ebene_1" x="0px" y="0px" viewBox="0 0 512 512" style="enable-background:new 0 0 512 512;" xml:space="preserve">
<style type="text/css">
	.st0{fill:#25F4EE;}
	.st1{fill:#FE2C55;}
	.st2{fill:#FFFFFF;}
</style>
<g id="BACKGROUND">
	<circle cx="256" cy="256" r="256"></circle>
</g>
<g id="ICONS">
	<g>
		<path class="st0" d="M222,219.4v-13.9c-4.7-0.6-9.4-1-14.2-1c-58.1,0-105.4,47.3-105.4,105.4c0,35.7,17.8,67.2,45,86.3    c-17.5-18.8-28-44.1-28-71.8C119.4,267.1,165,220.7,222,219.4L222,219.4z"></path>
		<path class="st0" d="M224.5,372.9c25.9,0,47.4-20.9,48.4-46.6L273.1,97l41.6,0l-0.1-0.3c-0.9-4.7-1.3-9.6-1.3-14.5H256l-0.1,229.5    c-1,25.7-22.1,46.3-48.1,46.3c-8.1,0-15.7-2-22.3-5.5C194.2,364.6,208.5,372.9,224.5,372.9L224.5,372.9z"></path>
		<path class="st0" d="M392.9,175.3v-13.4c-16,0-30.9-4.8-43.4-12.9C360.6,161.7,375.8,171.6,392.9,175.3L392.9,175.3z"></path>
		<path class="st1" d="M349.5,148.9c-12.2-14-19.6-32.3-19.6-52.2h-15.6C318.4,118.5,331.6,137.2,349.5,148.9z"></path>
		<path class="st1" d="M207.8,261.3c-26.5,0-48.5,22-48.5,48.6c0,18.5,10.8,34.5,26.1,42.6c-5.7-7.9-9.1-17.6-9.1-28.1    c0-26.5,21.6-48.1,48.1-48.1c5,0,9.7,0.8,14.2,2.2V220c-4.7-0.6-9.4-1-14.2-1c-0.8,0-1.7,0-2.5,0.1h-0.2l-0.2,44.3    C217.1,261.9,212.8,261.3,207.8,261.3L207.8,261.3z"></path>
		<path class="st1" d="M392.9,174.6l-0.3-0.1l0,44.2c-29.7,0-57.3-9.8-79.8-25.9l0,117c0,58.1-47,105.1-105.1,105.1    c-22.5,0-43.3-6.8-60.4-18.8c19.3,20.7,46.7,33.6,77.1,33.6c58.1,0,105.4-47.3,105.4-105.4V208c22.5,16.1,50,25.6,79.7,25.6v-57.3    C403.9,176.4,398.3,175.8,392.9,174.6L392.9,174.6z"></path>
		<path class="st2" d="M313.2,309.9V193.5c22.5,16.1,50,25.6,79.7,25.6v-44.5c-17.2-3.7-32.3-12.9-43.4-25.7    c-17.9-11.7-30.9-30.4-34.9-52.2h-41.9l-0.1,229.5c-1,25.7-22.1,46.3-48.1,46.3c-16.1,0-30.3-7.9-39-20.1    c-15.3-8.1-25.8-24.1-25.8-42.6c0-26.5,21.6-48.1,48.1-48.1c5,0,9.7,0.8,14.2,2.2v-44.9c-57,1.3-102.9,48.1-102.9,105.4    c0,27.7,10.8,52.9,28.3,71.8c17.1,12,37.9,19.1,60.4,19.1C265.9,415.3,313.2,368,313.2,309.9L313.2,309.9z"></path>
	</g>
</g>
</svg>
