<?xml version="1.0" encoding="UTF-8"?>
<svg xmlns="http://www.w3.org/2000/svg" xmlns:xlink="http://www.w3.org/1999/xlink" version="1.1" id="svg2" x="0px" y="0px" viewBox="0 0 512 512" style="enable-background:new 0 0 512 512;" xml:space="preserve">
<style type="text/css">
	.st0{fill:#1AB7EA;}
</style>
<path id="path4" class="st0" d="M509.8,143.9c-2.3,49.5-36.8,117.2-103.6,203.2c-69.1,89.8-127.5,134.7-175.3,134.7  c-29.6,0-54.7-27.3-75.2-82.1c-13.7-50.1-27.3-100.3-41-150.4c-15.2-54.7-31.5-82.1-48.9-82.1c-3.8,0-17.1,8-39.9,24L2,160.4  c25.1-22,49.8-44.1,74.1-66.2c33.5-28.9,58.6-44.1,75.3-45.7c39.5-3.8,63.9,23.2,73,81.1c9.8,62.5,16.7,101.3,20.5,116.5  c11.4,51.8,24,77.7,37.6,77.7c10.6,0,26.6-16.8,47.9-50.4c21.3-33.6,32.7-59.2,34.2-76.8c3-29-8.4-43.6-34.2-43.6  c-12.2,0-24.7,2.8-37.6,8.3C317.9,79.7,365.6,40,436,42.2C488.2,43.8,512.8,77.7,509.8,143.9"></path>
</svg>
