<?xml version="1.0" encoding="UTF-8"?>
<svg xmlns="http://www.w3.org/2000/svg" xmlns:xlink="http://www.w3.org/1999/xlink" id="Ebene_1" data-name="Ebene 1" viewBox="0 0 512 512.98">
  <defs>
    <style>
      .cls-1 {
        fill: none;
      }

      .cls-2, .cls-3 {
        fill: #fff;
      }

      .cls-4 {
        fill: #b3b3b3;
      }

      .cls-3 {
        fill-rule: evenodd;
      }

      .cls-5 {
        fill: url(#Unbenannter_Verlauf);
      }
    </style>
    <linearGradient id="Unbenannter_Verlauf" data-name="Unbenannter Verlauf" x1="254.8" y1="428.38" x2="256.72" y2="104.66" gradientTransform="translate(0 515.43) scale(1 -1)" gradientUnits="userSpaceOnUse">
      <stop offset="0" stop-color="#57d163"></stop>
      <stop offset="1" stop-color="#23b33a"></stop>
    </linearGradient>
  </defs>
  <path class="cls-4" d="m154.73,415l6.92,4.1c29.07,17.25,62.41,26.38,96.4,26.4h.07c104.39,0,189.35-84.94,189.39-189.34.02-50.59-19.66-98.16-55.42-133.95-35.43-35.65-83.64-55.64-133.9-55.52-104.47,0-189.43,84.93-189.47,189.32-.05,35.65,9.99,70.58,28.95,100.76l4.51,7.16-19.14,69.86,71.68-18.79Zm-126.39,72.92l32.33-118.04c-19.94-34.54-30.43-73.73-30.42-113.89.05-125.6,102.27-227.79,227.88-227.79,60.95.03,118.17,23.75,161.19,66.81,43.03,43.06,66.7,100.29,66.68,161.16-.06,125.6-102.29,227.8-227.88,227.8h-.1c-38.13-.02-75.61-9.58-108.89-27.73l-120.8,31.68Z"></path>
  <path class="cls-2" d="m26,485.57l32.33-118.04c-19.97-34.63-30.46-73.91-30.42-113.89.05-125.6,102.27-227.79,227.88-227.79,60.95.03,118.17,23.75,161.19,66.81,43.03,43.06,66.7,100.29,66.68,161.16-.06,125.6-102.29,227.8-227.88,227.8h-.1c-38.13-.02-75.61-9.58-108.89-27.73l-120.8,31.68Z"></path>
  <path class="cls-1" d="m255.86,64.34c-104.47,0-189.43,84.93-189.47,189.32-.05,35.65,9.99,70.58,28.95,100.76l4.51,7.16-19.14,69.87,71.68-18.8,6.92,4.1c29.07,17.25,62.41,26.38,96.4,26.4h.07c104.39,0,189.35-84.94,189.39-189.34.16-50.26-19.8-98.5-55.42-133.95-35.43-35.65-83.64-55.65-133.9-55.53h0Z"></path>
  <path class="cls-5" d="m255.86,64.34c-104.47,0-189.43,84.93-189.47,189.32-.05,35.65,9.99,70.58,28.95,100.76l4.51,7.16-19.14,69.86,71.68-18.8,6.92,4.1c29.07,17.25,62.41,26.38,96.4,26.4h.07c104.39,0,189.35-84.94,189.39-189.34.16-50.26-19.8-98.5-55.42-133.95-35.43-35.65-83.64-55.64-133.9-55.52Z"></path>
  <path class="cls-3" d="m198.83,158.42c-4.27-9.48-8.76-9.67-12.81-9.84l-10.91-.13c-3.8,0-9.97,1.42-15.18,7.12s-19.93,19.47-19.93,47.48,20.4,55.08,23.25,58.88,39.39,63.12,97.26,85.94c48.09,18.97,57.88,15.19,68.32,14.25,10.44-.95,33.69-13.77,38.43-27.07,4.74-13.3,4.74-24.69,3.32-27.07s-5.22-3.8-10.92-6.65-33.69-16.62-38.91-18.52c-5.22-1.9-9.01-2.85-12.81,2.85s-14.7,18.52-18.02,22.32c-3.32,3.8-6.64,4.28-12.34,1.43s-24.03-8.86-45.79-28.26c-16.93-15.09-28.35-33.73-31.68-39.43-3.33-5.7-.35-8.78,2.5-11.62,2.56-2.55,5.69-6.65,8.54-9.97s3.79-5.7,5.69-9.49.95-7.13-.47-9.97-12.49-31-17.55-42.27"></path>
</svg>
