<?xml version="1.0" encoding="UTF-8"?>
<svg xmlns="http://www.w3.org/2000/svg" viewBox="0 0 512 512">
  <defs>
    <style>.a{fill:#005a5f;}.b{fill:#d4d600;}</style>
  </defs>
  <path class="a" d="M77.77,101.12c-4.43,0-8.17,1.55-10.08,4.61s-1.66,7.2.43,11.31l49.93,86.42a.47.47,0,0,1,0,.43L39.59,342.4c-2.05,4.07-2,8.18,0,11.31a10.87,10.87,0,0,0,9.65,5.05h73.85c11,0,16.36-7.46,20.14-14.27L223,203.5,172.19,115c-3.67-6.56-9.22-13.83-20.57-13.83Z"></path>
  <path class="b" d="M388,0c-11,0-15.81,7-19.77,14.05,0,0-159.08,282.13-164.34,291.39C204.18,306,308.86,498,308.86,498c3.68,6.56,9.33,14.05,20.65,14.05h73.77c4.47,0,7.93-1.66,9.8-4.72s1.91-7.31-.14-11.42L308.83,305.66a.38.38,0,0,1,0-.47L472.34,16.1c2.05-4.07,2.09-8.25.14-11.38S467.11,0,462.65,0Z"></path>
</svg>
